# xmcd
#
# Track frame offsets:
#	150
#	17478
#	34281
#	51685
#	65188
#	83117
#	99696
#	113724
#	129927
#	143656
#	157610
#	172238
#	187391
#	203294
#	222647
#	239450
#	252953
#	270206
#
# Disc length: 3817 seconds
#
# Revision: 1
# Processed by: cddbd v1.5.2PL0 Copyright (c) Steve Scherf et al.
# Submitted via: audiograbber 1.83.01
#
DISCID=060ee712
DTITLE=Various Artist - Promo Only Country Radio 2009 - 6
DYEAR=2009
DGENRE=Country
TTITLE0=Taylor Swift - You Belong With Me
TTITLE1=Miranda Lambert - Dead Flowers
TTITLE2=Darius Rucker - Alright
TTITLE3=Reba McEntire - Strange
TTITLE4=Bucky Covington - I Want My Life Back
TTITLE5=Sarah Darling - Jack Of Hearts
TTITLE6=Joe Nichols - Believers (Single Version)
TTITLE7=Emily West - That Kind Of Happy
TTITLE8=Dirt Brothers - Hotty Toddy (EP Version)
TTITLE9=Mark Chesnutt - She Never Got Me Over You
TTITLE10=Krista - Jeep Jeep
TTITLE11=Mate Stilwell - Rain (Radio Mix)
TTITLE12=Kate and Kacey - Dreaming Love
TTITLE13=The Parks - Where The Truth Lies
TTITLE14=Lance Miller - George Jones And Jesus
TTITLE15=Mac McAnally - You First
TTITLE16=Billy McKnight - Sweeter
TTITLE17=Carla Williams - Every Word You're Thinking
EXTD=
EXTT0=
EXTT1=
EXTT2=
EXTT3=
EXTT4=
EXTT5=
EXTT6=
EXTT7=
EXTT8=
EXTT9=
EXTT10=
EXTT11=
EXTT12=
EXTT13=
EXTT14=
EXTT15=
EXTT16=
EXTT17=
PLAYORDER=
